<svg width="32px" height="32px" viewBox="-2.4 -2.4 28.80 28.80" id="meteor-icon-kit__solid-external-link" fill="none" xmlns="http://www.w3.org/2000/svg" stroke="#000000" stroke-width="0.00024000000000000003"><g id="SVGRepo_bgCarrier" stroke-width="0"></g><g id="SVGRepo_tracerCarrier" stroke-linecap="round" stroke-linejoin="round"></g><g id="SVGRepo_iconCarrier"><path fill-rule="evenodd" clip-rule="evenodd" d="M16.5 3C15.6716 3 15 2.32843 15 1.5C15 0.671573 15.6716 0 16.5 0H22.5C23.3284 0 24 0.671573 24 1.5V7.5C24 8.32843 23.3284 9 22.5 9C21.6716 9 21 8.32843 21 7.5V5.12132L9.56066 16.5607C8.97487 17.1464 8.02513 17.1464 7.43934 16.5607C6.85355 15.9749 6.85355 15.0251 7.43934 14.4393L18.8787 3H16.5ZM19 21V13.5C19 12.6716 19.6716 12 20.5 12C21.3284 12 22 12.6716 22 13.5V21.5C22 22.8807 20.8807 24 19.5 24H2.5C1.11929 24 0 22.8807 0 21.5V4.5C0 3.11929 1.11929 2 2.5 2H10.5C11.3284 2 12 2.67157 12 3.5C12 4.32843 11.3284 5 10.5 5H3V21H19Z" fill="#ffffff"></path></g></svg>